<mxfile host="" modified="2020-06-22T09:28:05.277Z" agent="5.0 (Macintosh; Intel Mac OS X 10_15_3) AppleWebKit/537.36 (KHTML, like Gecko) Code/1.46.0 Chrome/78.0.3904.130 Electron/7.3.1 Safari/537.36" etag="j5sYAUOtCZ6lUdCxkCBF" version="13.1.3">
    <diagram id="6hGFLwfOUW9BJ-s0fimq" name="Page-1">
        <mxGraphModel dx="2625" dy="1755" grid="1" gridSize="10" guides="1" tooltips="1" connect="1" arrows="1" fold="1" page="1" pageScale="1" pageWidth="827" pageHeight="1169" math="0" shadow="0">
            <root>
                <mxCell id="0"/>
                <mxCell id="1" parent="0"/>
                <mxCell id="21" style="edgeStyle=orthogonalEdgeStyle;rounded=0;orthogonalLoop=1;jettySize=auto;html=1;entryX=0.5;entryY=0;entryDx=0;entryDy=0;fontFamily=Times New Roman;" parent="1" source="2" target="6" edge="1">
                    <mxGeometry relative="1" as="geometry">
                        <Array as="points">
                            <mxPoint x="400" y="360"/>
                            <mxPoint x="351" y="360"/>
                        </Array>
                    </mxGeometry>
                </mxCell>
                <mxCell id="23" style="edgeStyle=orthogonalEdgeStyle;rounded=0;orthogonalLoop=1;jettySize=auto;html=1;fontFamily=Times New Roman;" parent="1" source="2" target="3" edge="1">
                    <mxGeometry relative="1" as="geometry">
                        <Array as="points">
                            <mxPoint x="400" y="360"/>
                            <mxPoint x="120" y="360"/>
                        </Array>
                    </mxGeometry>
                </mxCell>
                <mxCell id="24" style="edgeStyle=orthogonalEdgeStyle;rounded=0;orthogonalLoop=1;jettySize=auto;html=1;entryX=0.5;entryY=0;entryDx=0;entryDy=0;fontFamily=Times New Roman;" parent="1" source="2" target="8" edge="1">
                    <mxGeometry relative="1" as="geometry">
                        <Array as="points">
                            <mxPoint x="400" y="360"/>
                            <mxPoint x="520" y="360"/>
                        </Array>
                    </mxGeometry>
                </mxCell>
                <mxCell id="167" style="edgeStyle=orthogonalEdgeStyle;rounded=0;orthogonalLoop=1;jettySize=auto;html=1;entryX=0.5;entryY=0;entryDx=0;entryDy=0;" parent="1" source="2" target="5" edge="1">
                    <mxGeometry relative="1" as="geometry">
                        <Array as="points">
                            <mxPoint x="400" y="360"/>
                            <mxPoint x="683" y="360"/>
                        </Array>
                    </mxGeometry>
                </mxCell>
                <mxCell id="2" value="&lt;font face=&quot;Times New Roman&quot;&gt;UAV&lt;/font&gt;" style="rounded=0;whiteSpace=wrap;html=1;" parent="1" vertex="1">
                    <mxGeometry x="360" y="290" width="80" height="40" as="geometry"/>
                </mxCell>
                <mxCell id="13" style="edgeStyle=orthogonalEdgeStyle;rounded=0;orthogonalLoop=1;jettySize=auto;html=1;entryX=0.5;entryY=0;entryDx=0;entryDy=0;fontFamily=Times New Roman;" parent="1" source="3" target="9" edge="1">
                    <mxGeometry relative="1" as="geometry"/>
                </mxCell>
                <mxCell id="14" style="edgeStyle=orthogonalEdgeStyle;rounded=0;orthogonalLoop=1;jettySize=auto;html=1;fontFamily=Times New Roman;" parent="1" source="3" target="10" edge="1">
                    <mxGeometry relative="1" as="geometry"/>
                </mxCell>
                <mxCell id="3" value="Power Plant" style="rounded=0;whiteSpace=wrap;html=1;fontFamily=Times New Roman;" parent="1" vertex="1">
                    <mxGeometry x="80" y="400" width="80" height="40" as="geometry"/>
                </mxCell>
                <mxCell id="38" style="edgeStyle=orthogonalEdgeStyle;rounded=0;orthogonalLoop=1;jettySize=auto;html=1;entryX=0.5;entryY=0;entryDx=0;entryDy=0;fontFamily=Times New Roman;" parent="1" source="5" target="35" edge="1">
                    <mxGeometry relative="1" as="geometry">
                        <Array as="points">
                            <mxPoint x="640" y="470"/>
                            <mxPoint x="590" y="470"/>
                        </Array>
                    </mxGeometry>
                </mxCell>
                <mxCell id="166" style="edgeStyle=orthogonalEdgeStyle;rounded=0;orthogonalLoop=1;jettySize=auto;html=1;entryX=0.5;entryY=0;entryDx=0;entryDy=0;" parent="1" source="5" target="36" edge="1">
                    <mxGeometry relative="1" as="geometry"/>
                </mxCell>
                <mxCell id="5" value="Communication" style="rounded=0;whiteSpace=wrap;html=1;fontFamily=Times New Roman;" parent="1" vertex="1">
                    <mxGeometry x="643" y="400" width="80" height="40" as="geometry"/>
                </mxCell>
                <mxCell id="17" style="edgeStyle=orthogonalEdgeStyle;rounded=0;orthogonalLoop=1;jettySize=auto;html=1;fontFamily=Times New Roman;" parent="1" source="6" target="15" edge="1">
                    <mxGeometry relative="1" as="geometry"/>
                </mxCell>
                <mxCell id="18" style="edgeStyle=orthogonalEdgeStyle;rounded=0;orthogonalLoop=1;jettySize=auto;html=1;entryX=0.5;entryY=0;entryDx=0;entryDy=0;fontFamily=Times New Roman;" parent="1" source="6" target="16" edge="1">
                    <mxGeometry relative="1" as="geometry"/>
                </mxCell>
                <mxCell id="6" value="Navigation" style="rounded=0;whiteSpace=wrap;html=1;fontFamily=Times New Roman;" parent="1" vertex="1">
                    <mxGeometry x="311" y="400" width="80" height="40" as="geometry"/>
                </mxCell>
                <mxCell id="32" style="edgeStyle=orthogonalEdgeStyle;rounded=0;orthogonalLoop=1;jettySize=auto;html=1;fontFamily=Times New Roman;" parent="1" source="8" target="31" edge="1">
                    <mxGeometry relative="1" as="geometry">
                        <Array as="points">
                            <mxPoint x="520" y="560"/>
                            <mxPoint x="500" y="560"/>
                        </Array>
                    </mxGeometry>
                </mxCell>
                <mxCell id="75" style="edgeStyle=orthogonalEdgeStyle;rounded=0;orthogonalLoop=1;jettySize=auto;html=1;entryX=0.5;entryY=0;entryDx=0;entryDy=0;" parent="1" source="8" target="74" edge="1">
                    <mxGeometry relative="1" as="geometry">
                        <Array as="points">
                            <mxPoint x="520" y="560"/>
                            <mxPoint x="590" y="560"/>
                        </Array>
                    </mxGeometry>
                </mxCell>
                <mxCell id="8" value="Control" style="rounded=0;whiteSpace=wrap;html=1;fontFamily=Times New Roman;" parent="1" vertex="1">
                    <mxGeometry x="480" y="400" width="80" height="40" as="geometry"/>
                </mxCell>
                <mxCell id="9" value="Electronic Motor" style="rounded=0;whiteSpace=wrap;html=1;fontFamily=Times New Roman;" parent="1" vertex="1">
                    <mxGeometry x="30" y="510" width="80" height="40" as="geometry"/>
                </mxCell>
                <mxCell id="10" value="Battery" style="rounded=0;whiteSpace=wrap;html=1;fontFamily=Times New Roman;" parent="1" vertex="1">
                    <mxGeometry x="130" y="510" width="80" height="40" as="geometry"/>
                </mxCell>
                <mxCell id="159" style="edgeStyle=orthogonalEdgeStyle;rounded=0;orthogonalLoop=1;jettySize=auto;html=1;" parent="1" source="15" target="69" edge="1">
                    <mxGeometry relative="1" as="geometry"/>
                </mxCell>
                <mxCell id="15" value="Obstacle Sensing&amp;nbsp;" style="rounded=0;whiteSpace=wrap;html=1;fontFamily=Times New Roman;" parent="1" vertex="1">
                    <mxGeometry x="231" y="510" width="80" height="40" as="geometry"/>
                </mxCell>
                <mxCell id="160" style="edgeStyle=orthogonalEdgeStyle;rounded=0;orthogonalLoop=1;jettySize=auto;html=1;" parent="1" source="16" target="48" edge="1">
                    <mxGeometry relative="1" as="geometry"/>
                </mxCell>
                <mxCell id="163" style="edgeStyle=orthogonalEdgeStyle;rounded=0;orthogonalLoop=1;jettySize=auto;html=1;entryX=0.5;entryY=0;entryDx=0;entryDy=0;" parent="1" source="16" target="54" edge="1">
                    <mxGeometry relative="1" as="geometry">
                        <Array as="points">
                            <mxPoint x="431" y="650"/>
                            <mxPoint x="480" y="650"/>
                        </Array>
                    </mxGeometry>
                </mxCell>
                <mxCell id="165" style="edgeStyle=orthogonalEdgeStyle;rounded=0;orthogonalLoop=1;jettySize=auto;html=1;" parent="1" source="16" target="55" edge="1">
                    <mxGeometry relative="1" as="geometry">
                        <Array as="points">
                            <mxPoint x="431" y="650"/>
                            <mxPoint x="590" y="650"/>
                        </Array>
                    </mxGeometry>
                </mxCell>
                <mxCell id="16" value="State Estimation&amp;nbsp;" style="rounded=0;whiteSpace=wrap;html=1;fontFamily=Times New Roman;" parent="1" vertex="1">
                    <mxGeometry x="391" y="510" width="80" height="40" as="geometry"/>
                </mxCell>
                <mxCell id="31" value="On-board Flight Computer" style="rounded=0;whiteSpace=wrap;html=1;fontFamily=Times New Roman;" parent="1" vertex="1">
                    <mxGeometry x="460" y="585" width="80" height="40" as="geometry"/>
                </mxCell>
                <mxCell id="35" value="The Transmitter" style="rounded=0;whiteSpace=wrap;html=1;fontFamily=Times New Roman;" parent="1" vertex="1">
                    <mxGeometry x="593" y="500" width="80" height="40" as="geometry"/>
                </mxCell>
                <mxCell id="36" value="The Receiver" style="rounded=0;whiteSpace=wrap;html=1;fontFamily=Times New Roman;" parent="1" vertex="1">
                    <mxGeometry x="710" y="500" width="80" height="40" as="geometry"/>
                </mxCell>
                <mxCell id="41" value="" style="endArrow=none;html=1;fontFamily=Times New Roman;" parent="1" edge="1">
                    <mxGeometry width="50" height="50" relative="1" as="geometry">
                        <mxPoint x="10" y="460" as="sourcePoint"/>
                        <mxPoint x="820" y="460" as="targetPoint"/>
                    </mxGeometry>
                </mxCell>
                <mxCell id="48" value="Electronic Speed Controller" style="rounded=0;whiteSpace=wrap;html=1;fontFamily=Times New Roman;" parent="1" vertex="1">
                    <mxGeometry x="331" y="750" width="80" height="40" as="geometry"/>
                </mxCell>
                <mxCell id="54" value="GPS" style="rounded=0;whiteSpace=wrap;html=1;fontFamily=Times New Roman;" parent="1" vertex="1">
                    <mxGeometry x="440" y="750" width="80" height="40" as="geometry"/>
                </mxCell>
                <mxCell id="55" value="INS" style="rounded=0;whiteSpace=wrap;html=1;fontFamily=Times New Roman;" parent="1" vertex="1">
                    <mxGeometry x="550" y="750" width="80" height="40" as="geometry"/>
                </mxCell>
                <mxCell id="62" value="" style="endArrow=none;html=1;fontFamily=Times New Roman;" parent="1" edge="1">
                    <mxGeometry width="50" height="50" relative="1" as="geometry">
                        <mxPoint x="9" y="640" as="sourcePoint"/>
                        <mxPoint x="819" y="640" as="targetPoint"/>
                    </mxGeometry>
                </mxCell>
                <mxCell id="65" value="" style="endArrow=none;html=1;fontFamily=Times New Roman;" parent="1" edge="1">
                    <mxGeometry width="50" height="50" relative="1" as="geometry">
                        <mxPoint x="10" y="800" as="sourcePoint"/>
                        <mxPoint x="10" y="280" as="targetPoint"/>
                    </mxGeometry>
                </mxCell>
                <mxCell id="66" value="" style="endArrow=none;html=1;fontFamily=Times New Roman;" parent="1" edge="1">
                    <mxGeometry width="50" height="50" relative="1" as="geometry">
                        <mxPoint x="10" y="800" as="sourcePoint"/>
                        <mxPoint x="820" y="800" as="targetPoint"/>
                    </mxGeometry>
                </mxCell>
                <mxCell id="67" value="" style="endArrow=none;html=1;fontFamily=Times New Roman;" parent="1" edge="1">
                    <mxGeometry width="50" height="50" relative="1" as="geometry">
                        <mxPoint x="820" y="800" as="sourcePoint"/>
                        <mxPoint x="820" y="280" as="targetPoint"/>
                    </mxGeometry>
                </mxCell>
                <mxCell id="68" value="" style="endArrow=none;html=1;fontFamily=Times New Roman;" parent="1" edge="1">
                    <mxGeometry width="50" height="50" relative="1" as="geometry">
                        <mxPoint x="10" y="280" as="sourcePoint"/>
                        <mxPoint x="820" y="280" as="targetPoint"/>
                    </mxGeometry>
                </mxCell>
                <mxCell id="69" value="Camera" style="rounded=0;whiteSpace=wrap;html=1;fontFamily=Times New Roman;" parent="1" vertex="1">
                    <mxGeometry x="231" y="750" width="80" height="40" as="geometry"/>
                </mxCell>
                <mxCell id="71" value="Tier-1" style="text;html=1;align=center;verticalAlign=middle;resizable=0;points=[];autosize=1;fontFamily=Times New Roman;" parent="1" vertex="1">
                    <mxGeometry x="30" y="310" width="40" height="20" as="geometry"/>
                </mxCell>
                <mxCell id="72" value="Tier-2" style="text;html=1;align=center;verticalAlign=middle;resizable=0;points=[];autosize=1;fontFamily=Times New Roman;" parent="1" vertex="1">
                    <mxGeometry x="20" y="470" width="40" height="20" as="geometry"/>
                </mxCell>
                <mxCell id="73" value="Tier-3" style="text;html=1;align=center;verticalAlign=middle;resizable=0;points=[];autosize=1;fontFamily=Times New Roman;" parent="1" vertex="1">
                    <mxGeometry x="20" y="666" width="40" height="20" as="geometry"/>
                </mxCell>
                <mxCell id="74" value="Control Sensor" style="rounded=0;whiteSpace=wrap;html=1;fontFamily=Times New Roman;" parent="1" vertex="1">
                    <mxGeometry x="550" y="585" width="80" height="40" as="geometry"/>
                </mxCell>
                <mxCell id="82" style="edgeStyle=orthogonalEdgeStyle;rounded=0;orthogonalLoop=1;jettySize=auto;html=1;" parent="1" source="76" target="79" edge="1">
                    <mxGeometry relative="1" as="geometry">
                        <Array as="points">
                            <mxPoint x="8" y="1420"/>
                            <mxPoint x="118" y="1420"/>
                        </Array>
                    </mxGeometry>
                </mxCell>
                <mxCell id="76" value="UAV Height" style="rounded=0;whiteSpace=wrap;html=1;fontFamily=Times New Roman;fillColor=#b1ddf0;strokeColor=#10739e;" parent="1" vertex="1">
                    <mxGeometry x="-32" y="1310" width="80" height="40" as="geometry"/>
                </mxCell>
                <mxCell id="83" style="edgeStyle=orthogonalEdgeStyle;rounded=0;orthogonalLoop=1;jettySize=auto;html=1;" parent="1" source="78" edge="1">
                    <mxGeometry relative="1" as="geometry">
                        <mxPoint x="118" y="1460" as="targetPoint"/>
                    </mxGeometry>
                </mxCell>
                <mxCell id="78" value="UAV Mass" style="rounded=0;whiteSpace=wrap;html=1;fontFamily=Times New Roman;fillColor=#b1ddf0;strokeColor=#10739e;" parent="1" vertex="1">
                    <mxGeometry x="78" y="1310" width="80" height="40" as="geometry"/>
                </mxCell>
                <mxCell id="94" style="edgeStyle=orthogonalEdgeStyle;rounded=0;orthogonalLoop=1;jettySize=auto;html=1;entryX=0;entryY=0.5;entryDx=0;entryDy=0;fontFamily=Times New Roman;" parent="1" source="79" target="89" edge="1">
                    <mxGeometry relative="1" as="geometry"/>
                </mxCell>
                <mxCell id="79" value="Impact Energy" style="rounded=0;whiteSpace=wrap;html=1;fontFamily=Times New Roman;" parent="1" vertex="1">
                    <mxGeometry x="78" y="1459" width="80" height="40" as="geometry"/>
                </mxCell>
                <mxCell id="88" style="edgeStyle=orthogonalEdgeStyle;rounded=0;orthogonalLoop=1;jettySize=auto;html=1;entryX=0.5;entryY=0;entryDx=0;entryDy=0;" parent="1" source="80" target="79" edge="1">
                    <mxGeometry relative="1" as="geometry">
                        <Array as="points">
                            <mxPoint x="236" y="1420"/>
                            <mxPoint x="118" y="1420"/>
                        </Array>
                    </mxGeometry>
                </mxCell>
                <mxCell id="118" style="edgeStyle=orthogonalEdgeStyle;rounded=0;orthogonalLoop=1;jettySize=auto;html=1;entryX=0;entryY=0.5;entryDx=0;entryDy=0;fontFamily=Times New Roman;" parent="1" source="80" target="113" edge="1">
                    <mxGeometry relative="1" as="geometry"/>
                </mxCell>
                <mxCell id="80" value="UAV Radius" style="rounded=0;whiteSpace=wrap;html=1;fontFamily=Times New Roman;fillColor=#b1ddf0;strokeColor=#10739e;" parent="1" vertex="1">
                    <mxGeometry x="196" y="1310" width="80" height="40" as="geometry"/>
                </mxCell>
                <mxCell id="140" style="edgeStyle=orthogonalEdgeStyle;rounded=0;orthogonalLoop=1;jettySize=auto;html=1;entryX=0;entryY=0.5;entryDx=0;entryDy=0;fontFamily=Times New Roman;" parent="1" source="99" target="136" edge="1">
                    <mxGeometry relative="1" as="geometry">
                        <Array as="points">
                            <mxPoint x="820" y="1611"/>
                            <mxPoint x="820" y="1463"/>
                        </Array>
                    </mxGeometry>
                </mxCell>
                <mxCell id="99" value="Probability of Impact: &lt;br&gt;P(skull fracture)" style="rounded=0;whiteSpace=wrap;html=1;fontFamily=Times New Roman;" parent="1" vertex="1">
                    <mxGeometry x="550" y="1590" width="190" height="41" as="geometry"/>
                </mxCell>
                <mxCell id="100" style="edgeStyle=orthogonalEdgeStyle;rounded=0;orthogonalLoop=1;jettySize=auto;html=1;entryX=0;entryY=0.5;entryDx=0;entryDy=0;fontFamily=Times New Roman;" parent="1" source="91" target="99" edge="1">
                    <mxGeometry relative="1" as="geometry"/>
                </mxCell>
                <mxCell id="101" style="edgeStyle=orthogonalEdgeStyle;rounded=0;orthogonalLoop=1;jettySize=auto;html=1;entryX=0;entryY=0.5;entryDx=0;entryDy=0;fontFamily=Times New Roman;" parent="1" source="91" target="95" edge="1">
                    <mxGeometry relative="1" as="geometry"/>
                </mxCell>
                <mxCell id="138" style="edgeStyle=orthogonalEdgeStyle;rounded=0;orthogonalLoop=1;jettySize=auto;html=1;entryX=0;entryY=0.5;entryDx=0;entryDy=0;fontFamily=Times New Roman;" parent="1" source="113" target="136" edge="1">
                    <mxGeometry relative="1" as="geometry">
                        <Array as="points">
                            <mxPoint x="820" y="1285"/>
                            <mxPoint x="820" y="1463"/>
                        </Array>
                    </mxGeometry>
                </mxCell>
                <mxCell id="113" value="Number of People Impacted" style="rounded=0;whiteSpace=wrap;html=1;fontFamily=Times New Roman;" parent="1" vertex="1">
                    <mxGeometry x="543" y="1260" width="180" height="50" as="geometry"/>
                </mxCell>
                <mxCell id="89" value="Kinetic Energy (J)" style="swimlane;fontStyle=0;childLayout=stackLayout;horizontal=1;startSize=22;horizontalStack=0;resizeParent=1;resizeParentMax=0;resizeLast=0;collapsible=1;marginBottom=0;align=center;fontSize=14;fontFamily=Times New Roman;" parent="1" vertex="1">
                    <mxGeometry x="279" y="1408" width="140" height="142" as="geometry"/>
                </mxCell>
                <mxCell id="90" value="0 &lt;= E &lt; 21.36" style="text;strokeColor=none;fillColor=none;spacingLeft=4;spacingRight=4;overflow=hidden;rotatable=0;points=[[0,0.5],[1,0.5]];portConstraint=eastwest;fontSize=12;fontFamily=Times New Roman;" parent="89" vertex="1">
                    <mxGeometry y="22" width="140" height="28" as="geometry"/>
                </mxCell>
                <mxCell id="91" value="21.36 &lt;= E &lt; = 43.94" style="text;strokeColor=none;fillColor=none;spacingLeft=4;spacingRight=4;overflow=hidden;rotatable=0;points=[[0,0.5],[1,0.5]];portConstraint=eastwest;fontSize=12;fontFamily=Times New Roman;" parent="89" vertex="1">
                    <mxGeometry y="50" width="140" height="26" as="geometry"/>
                </mxCell>
                <mxCell id="92" value="43.94 &lt; E &lt;= 81.57&#10;&#10;E &gt; 81.57&#10;&#10;&#10;" style="text;strokeColor=none;fillColor=none;spacingLeft=4;spacingRight=4;overflow=hidden;rotatable=0;points=[[0,0.5],[1,0.5]];portConstraint=eastwest;fontSize=12;fontFamily=Times New Roman;" parent="89" vertex="1">
                    <mxGeometry y="76" width="140" height="66" as="geometry"/>
                </mxCell>
                <mxCell id="95" value="Injury Level (AIS) " style="swimlane;fontStyle=0;childLayout=stackLayout;horizontal=1;startSize=22;horizontalStack=0;resizeParent=1;resizeParentMax=0;resizeLast=0;collapsible=1;marginBottom=0;align=center;fontSize=14;fontFamily=Times New Roman;" parent="1" vertex="1">
                    <mxGeometry x="538" y="1400" width="190" height="142" as="geometry"/>
                </mxCell>
                <mxCell id="96" value="0-1 No Skull Fracture" style="text;strokeColor=none;fillColor=none;spacingLeft=4;spacingRight=4;overflow=hidden;rotatable=0;points=[[0,0.5],[1,0.5]];portConstraint=eastwest;fontSize=12;fontFamily=Times New Roman;" parent="95" vertex="1">
                    <mxGeometry y="22" width="190" height="28" as="geometry"/>
                </mxCell>
                <mxCell id="97" value="2 Minor Depressed Skull Fracture" style="text;strokeColor=none;fillColor=none;spacingLeft=4;spacingRight=4;overflow=hidden;rotatable=0;points=[[0,0.5],[1,0.5]];portConstraint=eastwest;fontSize=12;fontFamily=Times New Roman;" parent="95" vertex="1">
                    <mxGeometry y="50" width="190" height="26" as="geometry"/>
                </mxCell>
                <mxCell id="98" value="3 Major Depressed Skull Fracture&#10;&#10;4 Sever Life-Endangering Fracture" style="text;strokeColor=none;fillColor=none;spacingLeft=4;spacingRight=4;overflow=hidden;rotatable=0;points=[[0,0.5],[1,0.5]];portConstraint=eastwest;fontSize=12;fontFamily=Times New Roman;" parent="95" vertex="1">
                    <mxGeometry y="76" width="190" height="66" as="geometry"/>
                </mxCell>
                <mxCell id="116" style="edgeStyle=orthogonalEdgeStyle;rounded=0;orthogonalLoop=1;jettySize=auto;html=1;entryX=0;entryY=0.5;entryDx=0;entryDy=0;fontFamily=Times New Roman;" parent="1" source="114" target="113" edge="1">
                    <mxGeometry relative="1" as="geometry"/>
                </mxCell>
                <mxCell id="114" value="Population Density" style="rounded=0;whiteSpace=wrap;html=1;fontFamily=Times New Roman;fillColor=#b1ddf0;strokeColor=#10739e;" parent="1" vertex="1">
                    <mxGeometry x="196" y="1210" width="80" height="40" as="geometry"/>
                </mxCell>
                <mxCell id="134" value="Social Cost" style="swimlane;fontStyle=0;childLayout=stackLayout;horizontal=1;startSize=22;horizontalStack=0;resizeParent=1;resizeParentMax=0;resizeLast=0;collapsible=1;marginBottom=0;align=center;fontSize=14;fontFamily=Times New Roman;" parent="1" vertex="1">
                    <mxGeometry x="880" y="1400" width="190" height="142" as="geometry"/>
                </mxCell>
                <mxCell id="135" value="AIS1: SGD 6349.48" style="text;strokeColor=none;fillColor=none;spacingLeft=4;spacingRight=4;overflow=hidden;rotatable=0;points=[[0,0.5],[1,0.5]];portConstraint=eastwest;fontSize=12;fontFamily=Times New Roman;" parent="134" vertex="1">
                    <mxGeometry y="22" width="190" height="28" as="geometry"/>
                </mxCell>
                <mxCell id="136" value="AIS 2: SGD 322915.19" style="text;strokeColor=none;fillColor=none;spacingLeft=4;spacingRight=4;overflow=hidden;rotatable=0;points=[[0,0.5],[1,0.5]];portConstraint=eastwest;fontSize=12;fontFamily=Times New Roman;" parent="134" vertex="1">
                    <mxGeometry y="50" width="190" height="26" as="geometry"/>
                </mxCell>
                <mxCell id="137" value="AIS 3: SGD 386879.38&#10;&#10;AIS 4: SGD 1086973.36" style="text;strokeColor=none;fillColor=none;spacingLeft=4;spacingRight=4;overflow=hidden;rotatable=0;points=[[0,0.5],[1,0.5]];portConstraint=eastwest;fontSize=12;fontFamily=Times New Roman;" parent="134" vertex="1">
                    <mxGeometry y="76" width="190" height="66" as="geometry"/>
                </mxCell>
                <mxCell id="141" style="edgeStyle=orthogonalEdgeStyle;rounded=0;orthogonalLoop=1;jettySize=auto;html=1;entryX=0;entryY=0.5;entryDx=0;entryDy=0;fontFamily=Times New Roman;" parent="1" source="97" target="136" edge="1">
                    <mxGeometry relative="1" as="geometry"/>
                </mxCell>
                <mxCell id="142" style="edgeStyle=orthogonalEdgeStyle;rounded=0;orthogonalLoop=1;jettySize=auto;html=1;entryX=0;entryY=0.5;entryDx=0;entryDy=0;fontFamily=Times New Roman;" parent="1" source="122" target="136" edge="1">
                    <mxGeometry relative="1" as="geometry">
                        <Array as="points">
                            <mxPoint x="820" y="1773"/>
                            <mxPoint x="820" y="1463"/>
                        </Array>
                    </mxGeometry>
                </mxCell>
                <mxCell id="143" value="Risk Level" style="rounded=0;whiteSpace=wrap;html=1;fontFamily=Times New Roman;fillColor=#fad9d5;strokeColor=#ae4132;" parent="1" vertex="1">
                    <mxGeometry x="1180" y="1443" width="80" height="40" as="geometry"/>
                </mxCell>
                <mxCell id="144" style="edgeStyle=orthogonalEdgeStyle;rounded=0;orthogonalLoop=1;jettySize=auto;html=1;entryX=0;entryY=0.5;entryDx=0;entryDy=0;fontFamily=Times New Roman;" parent="1" source="136" target="143" edge="1">
                    <mxGeometry relative="1" as="geometry"/>
                </mxCell>
                <mxCell id="153" style="edgeStyle=orthogonalEdgeStyle;rounded=0;orthogonalLoop=1;jettySize=auto;html=1;fontFamily=Times New Roman;" parent="1" source="146" target="122" edge="1">
                    <mxGeometry relative="1" as="geometry">
                        <Array as="points">
                            <mxPoint x="460" y="1673"/>
                            <mxPoint x="460" y="1773"/>
                        </Array>
                    </mxGeometry>
                </mxCell>
                <mxCell id="146" value="Pilot Certification" style="rounded=0;whiteSpace=wrap;html=1;fontFamily=Times New Roman;fillColor=#b1ddf0;strokeColor=#10739e;" parent="1" vertex="1">
                    <mxGeometry x="306.5" y="1653" width="80" height="40" as="geometry"/>
                </mxCell>
                <mxCell id="154" style="edgeStyle=orthogonalEdgeStyle;rounded=0;orthogonalLoop=1;jettySize=auto;html=1;fontFamily=Times New Roman;" parent="1" source="147" target="122" edge="1">
                    <mxGeometry relative="1" as="geometry">
                        <Array as="points">
                            <mxPoint x="460" y="1743"/>
                            <mxPoint x="460" y="1773"/>
                        </Array>
                    </mxGeometry>
                </mxCell>
                <mxCell id="147" value="Environment" style="rounded=0;whiteSpace=wrap;html=1;fontFamily=Times New Roman;fillColor=#b1ddf0;strokeColor=#10739e;" parent="1" vertex="1">
                    <mxGeometry x="309.5" y="1723" width="80" height="40" as="geometry"/>
                </mxCell>
                <mxCell id="155" style="edgeStyle=orthogonalEdgeStyle;rounded=0;orthogonalLoop=1;jettySize=auto;html=1;entryX=0;entryY=0.5;entryDx=0;entryDy=0;fontFamily=Times New Roman;" parent="1" source="148" target="122" edge="1">
                    <mxGeometry relative="1" as="geometry">
                        <Array as="points">
                            <mxPoint x="460" y="1803"/>
                            <mxPoint x="460" y="1773"/>
                        </Array>
                    </mxGeometry>
                </mxCell>
                <mxCell id="148" value="UAV Mean Time To Failure" style="rounded=0;whiteSpace=wrap;html=1;fontFamily=Times New Roman;fillColor=#b1ddf0;strokeColor=#10739e;" parent="1" vertex="1">
                    <mxGeometry x="309.5" y="1783" width="80" height="40" as="geometry"/>
                </mxCell>
                <mxCell id="120" value="Probability of Failure" style="swimlane;fontStyle=0;childLayout=stackLayout;horizontal=1;startSize=22;horizontalStack=0;resizeParent=1;resizeParentMax=0;resizeLast=0;collapsible=1;marginBottom=0;align=center;fontSize=14;fontFamily=Times New Roman;" parent="1" vertex="1">
                    <mxGeometry x="538" y="1710" width="190" height="142" as="geometry"/>
                </mxCell>
                <mxCell id="121" value="Airframe Functional Failure" style="text;strokeColor=none;fillColor=none;spacingLeft=4;spacingRight=4;overflow=hidden;rotatable=0;points=[[0,0.5],[1,0.5]];portConstraint=eastwest;fontSize=12;fontFamily=Times New Roman;" parent="120" vertex="1">
                    <mxGeometry y="22" width="190" height="28" as="geometry"/>
                </mxCell>
                <mxCell id="122" value="Human Error" style="text;strokeColor=none;fillColor=none;spacingLeft=4;spacingRight=4;overflow=hidden;rotatable=0;points=[[0,0.5],[1,0.5]];portConstraint=eastwest;fontSize=12;fontFamily=Times New Roman;" parent="120" vertex="1">
                    <mxGeometry y="50" width="190" height="26" as="geometry"/>
                </mxCell>
                <mxCell id="123" value="Adverse Environment&#10;&#10;Procedure Error" style="text;strokeColor=none;fillColor=none;spacingLeft=4;spacingRight=4;overflow=hidden;rotatable=0;points=[[0,0.5],[1,0.5]];portConstraint=eastwest;fontSize=12;fontFamily=Times New Roman;" parent="120" vertex="1">
                    <mxGeometry y="76" width="190" height="66" as="geometry"/>
                </mxCell>
                <mxCell id="156" style="edgeStyle=orthogonalEdgeStyle;rounded=0;orthogonalLoop=1;jettySize=auto;html=1;fontFamily=Times New Roman;" parent="1" source="152" target="122" edge="1">
                    <mxGeometry relative="1" as="geometry">
                        <Array as="points">
                            <mxPoint x="460" y="1872"/>
                            <mxPoint x="460" y="1773"/>
                        </Array>
                    </mxGeometry>
                </mxCell>
                <mxCell id="152" value="Operation Rule:&lt;br&gt;VLOS /BVLOS&amp;nbsp;" style="rounded=0;whiteSpace=wrap;html=1;fontFamily=Times New Roman;fillColor=#b1ddf0;strokeColor=#10739e;" parent="1" vertex="1">
                    <mxGeometry x="311" y="1852" width="80" height="40" as="geometry"/>
                </mxCell>
                <mxCell id="157" value="Input" style="rounded=0;whiteSpace=wrap;html=1;fontFamily=Times New Roman;fillColor=#b1ddf0;strokeColor=#10739e;" parent="1" vertex="1">
                    <mxGeometry x="1190" y="1640" width="80" height="40" as="geometry"/>
                </mxCell>
                <mxCell id="158" value="Output" style="rounded=0;whiteSpace=wrap;html=1;fontFamily=Times New Roman;fillColor=#fad9d5;strokeColor=#ae4132;" parent="1" vertex="1">
                    <mxGeometry x="1190" y="1723" width="80" height="40" as="geometry"/>
                </mxCell>
                <mxCell id="185" style="edgeStyle=orthogonalEdgeStyle;rounded=0;orthogonalLoop=1;jettySize=auto;html=1;fontFamily=Times New Roman;fontSize=14;" parent="1" edge="1">
                    <mxGeometry relative="1" as="geometry">
                        <mxPoint x="-870" y="2436" as="targetPoint"/>
                        <mxPoint x="-780" y="2436" as="sourcePoint"/>
                        <Array as="points">
                            <mxPoint x="-820" y="2436"/>
                            <mxPoint x="-820" y="2436"/>
                        </Array>
                    </mxGeometry>
                </mxCell>
                <mxCell id="194" style="edgeStyle=orthogonalEdgeStyle;rounded=0;orthogonalLoop=1;jettySize=auto;html=1;fontFamily=Times New Roman;fontSize=14;" parent="1" edge="1">
                    <mxGeometry relative="1" as="geometry">
                        <mxPoint x="-440" y="2391" as="targetPoint"/>
                        <mxPoint x="-550" y="2391" as="sourcePoint"/>
                        <Array as="points">
                            <mxPoint x="-490" y="2390.66"/>
                            <mxPoint x="-490" y="2390.66"/>
                        </Array>
                    </mxGeometry>
                </mxCell>
                <mxCell id="202" style="edgeStyle=orthogonalEdgeStyle;rounded=0;orthogonalLoop=1;jettySize=auto;html=1;fontFamily=Times New Roman;fontSize=14;" parent="1" edge="1">
                    <mxGeometry relative="1" as="geometry">
                        <mxPoint x="-640" y="2270" as="targetPoint"/>
                        <mxPoint x="-640" y="2340" as="sourcePoint"/>
                    </mxGeometry>
                </mxCell>
                <mxCell id="169" value="UAV On-board System" style="swimlane;fontFamily=Times New Roman;fontSize=14;" parent="1" vertex="1">
                    <mxGeometry x="-760" y="2350" width="200" height="134" as="geometry"/>
                </mxCell>
                <mxCell id="171" value="&lt;div style=&quot;text-align: left&quot;&gt;&lt;span style=&quot;font-size: 17px&quot;&gt;Power Plant&lt;/span&gt;&lt;/div&gt;&lt;font style=&quot;font-size: 17px&quot;&gt;&lt;br&gt;&lt;div style=&quot;text-align: left&quot;&gt;&lt;span&gt;Navigation System&lt;/span&gt;&lt;/div&gt;&lt;br&gt;Control System&lt;/font&gt;" style="text;html=1;align=center;verticalAlign=middle;resizable=0;points=[];autosize=1;fontFamily=Times New Roman;" parent="169" vertex="1">
                    <mxGeometry x="25" y="36" width="150" height="80" as="geometry"/>
                </mxCell>
                <mxCell id="180" style="edgeStyle=orthogonalEdgeStyle;rounded=0;orthogonalLoop=1;jettySize=auto;html=1;fontFamily=Times New Roman;fontSize=14;" parent="1" edge="1">
                    <mxGeometry relative="1" as="geometry">
                        <mxPoint x="-780" y="2396" as="targetPoint"/>
                        <mxPoint x="-870" y="2396" as="sourcePoint"/>
                    </mxGeometry>
                </mxCell>
                <mxCell id="177" value="" style="shape=actor;whiteSpace=wrap;html=1;fontFamily=Times New Roman;fontSize=14;" parent="1" vertex="1">
                    <mxGeometry x="-930" y="2387" width="40" height="60" as="geometry"/>
                </mxCell>
                <mxCell id="178" value="&lt;b style=&quot;font-size: 12px&quot;&gt;&lt;font style=&quot;font-size: 14px&quot;&gt;Human Operator&lt;/font&gt;&lt;/b&gt;" style="text;html=1;align=center;verticalAlign=middle;resizable=0;points=[];autosize=1;fontSize=14;fontFamily=Times New Roman;" parent="1" vertex="1">
                    <mxGeometry x="-1050" y="2416" width="120" height="20" as="geometry"/>
                </mxCell>
                <mxCell id="186" value="&lt;span style=&quot;color: rgba(0 , 0 , 0 , 0) ; font-family: monospace ; font-size: 0px&quot;&gt;%3CmxGraphModel%3E%3Croot%3E%3CmxCell%20id%3D%220%22%2F%3E%3CmxCell%20id%3D%221%22%20parent%3D%220%22%2F%3E%3CmxCell%20id%3D%222%22%20value%3D%22%26lt%3Bb%20style%3D%26quot%3Bfont-size%3A%2012px%26quot%3B%26gt%3B%26lt%3Bfont%20style%3D%26quot%3Bfont-size%3A%2014px%26quot%3B%26gt%3BHuman%20Operator%26lt%3B%2Ffont%26gt%3B%26lt%3B%2Fb%26gt%3B%22%20style%3D%22text%3Bhtml%3D1%3Balign%3Dcenter%3BverticalAlign%3Dmiddle%3Bresizable%3D0%3Bpoints%3D%5B%5D%3Bautosize%3D1%3BfontSize%3D14%3BfontFamily%3DTimes%20New%20Roman%3B%22%20vertex%3D%221%22%20parent%3D%221%22%3E%3CmxGeometry%20x%3D%22-790%22%20y%3D%221274%22%20width%3D%22120%22%20height%3D%2220%22%20as%3D%22geometry%22%2F%3E%3C%2FmxCell%3E%3C%2Froot%3E%3C%2FmxGraphModel%3E&lt;/span&gt;" style="text;html=1;align=center;verticalAlign=middle;resizable=0;points=[];autosize=1;fontSize=14;fontFamily=Times New Roman;" parent="1" vertex="1">
                    <mxGeometry x="-831" y="2376" width="20" height="30" as="geometry"/>
                </mxCell>
                <mxCell id="187" value="&lt;b style=&quot;font-size: 12px&quot;&gt;&lt;font style=&quot;font-size: 14px&quot;&gt;Command &amp;amp; Control&lt;/font&gt;&lt;/b&gt;" style="text;html=1;align=center;verticalAlign=middle;resizable=0;points=[];autosize=1;fontSize=14;fontFamily=Times New Roman;" parent="1" vertex="1">
                    <mxGeometry x="-900" y="2370" width="140" height="20" as="geometry"/>
                </mxCell>
                <mxCell id="188" value="&lt;b style=&quot;font-size: 12px&quot;&gt;&lt;font style=&quot;font-size: 14px&quot;&gt;Geo-fencing information&lt;/font&gt;&lt;/b&gt;" style="text;html=1;align=center;verticalAlign=middle;resizable=0;points=[];autosize=1;fontSize=14;fontFamily=Times New Roman;" parent="1" vertex="1">
                    <mxGeometry x="-920" y="2447" width="160" height="20" as="geometry"/>
                </mxCell>
                <mxCell id="190" value="&lt;span style=&quot;color: rgba(0 , 0 , 0 , 0) ; font-family: monospace ; font-size: 0px&quot;&gt;%3CmxGraphModel%3E%3Croot%3E%3CmxCell%20id%3D%220%22%2F%3E%3CmxCell%20id%3D%221%22%20parent%3D%220%22%2F%3E%3CmxCell%20id%3D%222%22%20value%3D%22%26lt%3Bb%20style%3D%26quot%3Bfont-size%3A%2012px%26quot%3B%26gt%3B%26lt%3Bfont%20style%3D%26quot%3Bfont-size%3A%2014px%26quot%3B%26gt%3BHuman%20Operator%26lt%3B%2Ffont%26gt%3B%26lt%3B%2Fb%26gt%3B%22%20style%3D%22text%3Bhtml%3D1%3Balign%3Dcenter%3BverticalAlign%3Dmiddle%3Bresizable%3D0%3Bpoints%3D%5B%5D%3Bautosize%3D1%3BfontSize%3D14%3BfontFamily%3DTimes%20New%20Roman%3B%22%20vertex%3D%221%22%20parent%3D%221%22%3E%3CmxGeometry%20x%3D%22-790%22%20y%3D%221274%22%20width%3D%22120%22%20height%3D%2220%22%20as%3D%22geometry%22%2F%3E%3C%2FmxCell%3E%3C%2Froot%3E%3C%2FmxGraphModel%3E&lt;/span&gt;" style="text;html=1;align=center;verticalAlign=middle;resizable=0;points=[];autosize=1;fontSize=14;fontFamily=Times New Roman;" parent="1" vertex="1">
                    <mxGeometry x="-848" y="2473" width="20" height="30" as="geometry"/>
                </mxCell>
                <mxCell id="191" value="&lt;b style=&quot;font-size: 12px&quot;&gt;&lt;font style=&quot;font-size: 14px&quot;&gt;ADS-B&lt;/font&gt;&lt;/b&gt;" style="text;html=1;align=center;verticalAlign=middle;resizable=0;points=[];autosize=1;fontSize=14;fontFamily=Times New Roman;" parent="1" vertex="1">
                    <mxGeometry x="-851" y="2473" width="60" height="20" as="geometry"/>
                </mxCell>
                <mxCell id="196" style="edgeStyle=orthogonalEdgeStyle;rounded=0;orthogonalLoop=1;jettySize=auto;html=1;fontFamily=Times New Roman;fontSize=14;" parent="1" edge="1">
                    <mxGeometry relative="1" as="geometry">
                        <mxPoint x="-550" y="2416" as="targetPoint"/>
                        <mxPoint x="-440" y="2416" as="sourcePoint"/>
                        <Array as="points">
                            <mxPoint x="-510" y="2416"/>
                            <mxPoint x="-510" y="2416"/>
                        </Array>
                    </mxGeometry>
                </mxCell>
                <mxCell id="192" value="&lt;b&gt;&lt;font style=&quot;font-size: 13px&quot;&gt;Public Safety &amp;amp; Security&lt;/font&gt;&lt;/b&gt;" style="rounded=0;whiteSpace=wrap;html=1;fontFamily=Times New Roman;" parent="1" vertex="1">
                    <mxGeometry x="-430" y="2376" width="90" height="53" as="geometry"/>
                </mxCell>
                <mxCell id="197" value="&lt;b style=&quot;font-size: 12px&quot;&gt;&lt;font style=&quot;font-size: 14px&quot;&gt;Constraints&lt;/font&gt;&lt;/b&gt;" style="text;html=1;align=center;verticalAlign=middle;resizable=0;points=[];autosize=1;fontSize=14;fontFamily=Times New Roman;" parent="1" vertex="1">
                    <mxGeometry x="-540" y="2350" width="90" height="20" as="geometry"/>
                </mxCell>
                <mxCell id="198" value="&lt;b style=&quot;font-size: 12px&quot;&gt;&lt;font style=&quot;font-size: 14px&quot;&gt;Notification&lt;/font&gt;&lt;/b&gt;" style="text;html=1;align=center;verticalAlign=middle;resizable=0;points=[];autosize=1;fontSize=14;fontFamily=Times New Roman;" parent="1" vertex="1">
                    <mxGeometry x="-530" y="2429" width="90" height="20" as="geometry"/>
                </mxCell>
                <mxCell id="201" style="edgeStyle=orthogonalEdgeStyle;rounded=0;orthogonalLoop=1;jettySize=auto;html=1;fontFamily=Times New Roman;fontSize=14;" parent="1" edge="1">
                    <mxGeometry relative="1" as="geometry">
                        <mxPoint x="-700" y="2340" as="targetPoint"/>
                        <mxPoint x="-700" y="2270" as="sourcePoint"/>
                    </mxGeometry>
                </mxCell>
                <mxCell id="200" value="&lt;b&gt;&lt;font style=&quot;font-size: 14px&quot;&gt;Air Traffic Controller&lt;/font&gt;&lt;/b&gt;" style="rounded=0;whiteSpace=wrap;html=1;fontFamily=Times New Roman;" parent="1" vertex="1">
                    <mxGeometry x="-730" y="2190" width="120" height="70" as="geometry"/>
                </mxCell>
                <mxCell id="203" value="&lt;b style=&quot;color: rgb(240 , 240 , 240) ; font-family: &amp;#34;times new roman&amp;#34; ; font-style: normal ; letter-spacing: normal ; text-align: center ; text-indent: 0px ; text-transform: none ; word-spacing: 0px ; background-color: rgb(42 , 42 , 42) ; font-size: 12px&quot;&gt;&lt;font style=&quot;font-size: 14px&quot;&gt;UAV state: position, speed&lt;/font&gt;&lt;/b&gt;" style="text;whiteSpace=wrap;html=1;fontSize=14;fontFamily=Times New Roman;" parent="1" vertex="1">
                    <mxGeometry x="-630" y="2280" width="100" height="30" as="geometry"/>
                </mxCell>
                <mxCell id="204" value="&lt;b style=&quot;color: rgb(240 , 240 , 240) ; font-family: &amp;#34;times new roman&amp;#34; ; font-style: normal ; letter-spacing: normal ; text-align: center ; text-indent: 0px ; text-transform: none ; word-spacing: 0px ; background-color: rgb(42 , 42 , 42) ; font-size: 12px&quot;&gt;&lt;font style=&quot;font-size: 14px&quot;&gt;Air Traffic Info&lt;/font&gt;&lt;/b&gt;" style="text;whiteSpace=wrap;html=1;fontSize=14;fontFamily=Times New Roman;" parent="1" vertex="1">
                    <mxGeometry x="-800" y="2290" width="100" height="30" as="geometry"/>
                </mxCell>
                <mxCell id="210" value="" style="endArrow=classic;html=1;fontFamily=Times New Roman;fontSize=14;" parent="1" edge="1">
                    <mxGeometry width="50" height="50" relative="1" as="geometry">
                        <mxPoint x="-930" y="2380" as="sourcePoint"/>
                        <mxPoint x="-740" y="2210" as="targetPoint"/>
                    </mxGeometry>
                </mxCell>
                <mxCell id="211" value="&lt;b&gt;Flight Application&lt;/b&gt;" style="text;html=1;align=center;verticalAlign=middle;resizable=0;points=[];autosize=1;fontSize=14;fontFamily=Times New Roman;" parent="1" vertex="1">
                    <mxGeometry x="-930" y="2330" width="120" height="20" as="geometry"/>
                </mxCell>
                <mxCell id="213" value="" style="endArrow=classic;html=1;fontFamily=Times New Roman;fontSize=14;" parent="1" edge="1">
                    <mxGeometry width="50" height="50" relative="1" as="geometry">
                        <mxPoint x="-690" y="2350" as="sourcePoint"/>
                        <mxPoint x="-640" y="2300" as="targetPoint"/>
                    </mxGeometry>
                </mxCell>
                <mxCell id="215" value="" style="endArrow=classic;html=1;fontFamily=Times New Roman;fontSize=14;" parent="1" edge="1">
                    <mxGeometry width="50" height="50" relative="1" as="geometry">
                        <mxPoint x="-760" y="2190" as="sourcePoint"/>
                        <mxPoint x="-960" y="2370" as="targetPoint"/>
                    </mxGeometry>
                </mxCell>
                <mxCell id="216" value="&lt;b&gt;&lt;font style=&quot;font-size: 13px&quot;&gt;NOTAM&lt;br&gt;METAR&lt;br&gt;TAF&lt;br&gt;SPECI&lt;br&gt;&lt;/font&gt;&lt;/b&gt;" style="text;html=1;align=center;verticalAlign=middle;resizable=0;points=[];autosize=1;fontSize=14;fontFamily=Times New Roman;" parent="1" vertex="1">
                    <mxGeometry x="-908" y="2210" width="60" height="70" as="geometry"/>
                </mxCell>
                <mxCell id="217" value="" style="endArrow=none;dashed=1;html=1;fontFamily=Times New Roman;fontSize=14;" parent="1" edge="1">
                    <mxGeometry width="50" height="50" relative="1" as="geometry">
                        <mxPoint x="-320" y="2140" as="sourcePoint"/>
                        <mxPoint x="-1080" y="2140" as="targetPoint"/>
                    </mxGeometry>
                </mxCell>
                <mxCell id="218" value="" style="endArrow=none;dashed=1;html=1;fontFamily=Times New Roman;fontSize=14;" parent="1" edge="1">
                    <mxGeometry width="50" height="50" relative="1" as="geometry">
                        <mxPoint x="-1080" y="2540" as="sourcePoint"/>
                        <mxPoint x="-1080" y="2140" as="targetPoint"/>
                    </mxGeometry>
                </mxCell>
                <mxCell id="219" value="" style="endArrow=none;dashed=1;html=1;fontFamily=Times New Roman;fontSize=14;" parent="1" edge="1">
                    <mxGeometry width="50" height="50" relative="1" as="geometry">
                        <mxPoint x="-1080" y="2540" as="sourcePoint"/>
                        <mxPoint x="-320" y="2540" as="targetPoint"/>
                    </mxGeometry>
                </mxCell>
                <mxCell id="220" value="" style="endArrow=none;dashed=1;html=1;fontFamily=Times New Roman;fontSize=14;" parent="1" edge="1">
                    <mxGeometry width="50" height="50" relative="1" as="geometry">
                        <mxPoint x="-320" y="2540" as="sourcePoint"/>
                        <mxPoint x="-320" y="2140" as="targetPoint"/>
                    </mxGeometry>
                </mxCell>
                <mxCell id="225" value="&lt;font face=&quot;Times New Roman&quot;&gt;&lt;b&gt;Power plant failure&lt;/b&gt;&lt;/font&gt;" style="ellipse;whiteSpace=wrap;html=1;strokeWidth=2;" parent="1" vertex="1">
                    <mxGeometry x="-910" y="80" width="120" height="80" as="geometry"/>
                </mxCell>
                <mxCell id="250" value="&lt;font face=&quot;Times New Roman&quot;&gt;&lt;b&gt;Navigation system failure&lt;/b&gt;&lt;/font&gt;" style="ellipse;whiteSpace=wrap;html=1;strokeWidth=2;" parent="1" vertex="1">
                    <mxGeometry x="-1130" y="90" width="120" height="80" as="geometry"/>
                </mxCell>
                <mxCell id="253" value="&lt;font face=&quot;Times New Roman&quot;&gt;&lt;b&gt;Inappropriate operator guidance action&lt;/b&gt;&lt;/font&gt;" style="ellipse;whiteSpace=wrap;html=1;strokeWidth=2;" parent="1" vertex="1">
                    <mxGeometry x="-940" y="250" width="120" height="80" as="geometry"/>
                </mxCell>
                <mxCell id="257" value="" style="endArrow=classic;html=1;strokeWidth=3;exitX=0.5;exitY=1;exitDx=0;exitDy=0;entryX=0;entryY=1;entryDx=0;entryDy=0;" parent="1" source="250" target="260" edge="1">
                    <mxGeometry width="50" height="50" relative="1" as="geometry">
                        <mxPoint x="-1280" y="600" as="sourcePoint"/>
                        <mxPoint x="-1230" y="550" as="targetPoint"/>
                    </mxGeometry>
                </mxCell>
                <mxCell id="259" value="&lt;font face=&quot;Times New Roman&quot;&gt;&lt;b&gt;Obstacle sensing failure&lt;/b&gt;&lt;/font&gt;" style="ellipse;whiteSpace=wrap;html=1;strokeWidth=2;" parent="1" vertex="1">
                    <mxGeometry x="-600" y="160" width="120" height="80" as="geometry"/>
                </mxCell>
                <mxCell id="260" value="&lt;font face=&quot;Times New Roman&quot;&gt;&lt;b&gt;UAV mishap risk&lt;/b&gt;&lt;/font&gt;" style="ellipse;whiteSpace=wrap;html=1;strokeWidth=2;" parent="1" vertex="1">
                    <mxGeometry x="-690" y="550" width="120" height="80" as="geometry"/>
                </mxCell>
                <mxCell id="261" value="&lt;font face=&quot;Times New Roman&quot;&gt;&lt;b&gt;Telemetry failure&lt;/b&gt;&lt;/font&gt;" style="ellipse;whiteSpace=wrap;html=1;strokeWidth=2;" parent="1" vertex="1">
                    <mxGeometry x="-610" y="40" width="120" height="80" as="geometry"/>
                </mxCell>
                <mxCell id="262" value="&lt;font face=&quot;Times New Roman&quot;&gt;&lt;b&gt;Operator loss of situation awareness&lt;/b&gt;&lt;/font&gt;" style="ellipse;whiteSpace=wrap;html=1;strokeWidth=2;" parent="1" vertex="1">
                    <mxGeometry x="-750" y="260" width="120" height="80" as="geometry"/>
                </mxCell>
                <mxCell id="263" value="" style="endArrow=classic;html=1;strokeWidth=3;entryX=0.5;entryY=0;entryDx=0;entryDy=0;exitX=0.5;exitY=1;exitDx=0;exitDy=0;" parent="1" source="262" target="260" edge="1">
                    <mxGeometry width="50" height="50" relative="1" as="geometry">
                        <mxPoint x="-660" y="260" as="sourcePoint"/>
                        <mxPoint x="-610" y="210" as="targetPoint"/>
                    </mxGeometry>
                </mxCell>
                <mxCell id="264" value="" style="endArrow=classic;html=1;strokeWidth=3;exitX=0;exitY=1;exitDx=0;exitDy=0;" parent="1" source="261" target="262" edge="1">
                    <mxGeometry width="50" height="50" relative="1" as="geometry">
                        <mxPoint x="-660" y="260" as="sourcePoint"/>
                        <mxPoint x="-610" y="210" as="targetPoint"/>
                    </mxGeometry>
                </mxCell>
                <mxCell id="266" value="" style="endArrow=classic;html=1;strokeWidth=3;exitX=0.5;exitY=1;exitDx=0;exitDy=0;" parent="1" source="259" target="260" edge="1">
                    <mxGeometry width="50" height="50" relative="1" as="geometry">
                        <mxPoint x="-660" y="260" as="sourcePoint"/>
                        <mxPoint x="-610" y="210" as="targetPoint"/>
                    </mxGeometry>
                </mxCell>
                <mxCell id="267" value="" style="endArrow=classic;html=1;strokeWidth=3;entryX=0.983;entryY=0.675;entryDx=0;entryDy=0;entryPerimeter=0;" parent="1" source="259" target="262" edge="1">
                    <mxGeometry width="50" height="50" relative="1" as="geometry">
                        <mxPoint x="-652.426406871193" y="278.2842712474619" as="sourcePoint"/>
                        <mxPoint x="-733.1835316309271" y="297.14371883619515" as="targetPoint"/>
                    </mxGeometry>
                </mxCell>
                <mxCell id="268" value="&lt;font face=&quot;Times New Roman&quot;&gt;&lt;b&gt;Operator lack of aviation regulation knowledge&lt;/b&gt;&lt;/font&gt;" style="ellipse;whiteSpace=wrap;html=1;strokeWidth=2;" parent="1" vertex="1">
                    <mxGeometry x="-450" y="180" width="120" height="80" as="geometry"/>
                </mxCell>
                <mxCell id="270" value="&lt;font face=&quot;Times New Roman&quot;&gt;&lt;b&gt;ADS-B failure&lt;/b&gt;&lt;/font&gt;" style="ellipse;whiteSpace=wrap;html=1;strokeWidth=2;" parent="1" vertex="1">
                    <mxGeometry x="-240" y="70" width="120" height="80" as="geometry"/>
                </mxCell>
                <mxCell id="271" value="" style="endArrow=classic;html=1;strokeWidth=3;exitX=0.1;exitY=0.783;exitDx=0;exitDy=0;exitPerimeter=0;entryX=1;entryY=0.5;entryDx=0;entryDy=0;" parent="1" source="270" target="260" edge="1">
                    <mxGeometry width="50" height="50" relative="1" as="geometry">
                        <mxPoint x="-223" y="380" as="sourcePoint"/>
                        <mxPoint x="-420" y="510" as="targetPoint"/>
                    </mxGeometry>
                </mxCell>
                <mxCell id="272" value="" style="endArrow=classic;html=1;strokeWidth=3;exitX=0;exitY=0.5;exitDx=0;exitDy=0;" parent="1" source="270" target="268" edge="1">
                    <mxGeometry width="50" height="50" relative="1" as="geometry">
                        <mxPoint x="-183.03999999999996" y="379.03999999999996" as="sourcePoint"/>
                        <mxPoint x="-410" y="520" as="targetPoint"/>
                    </mxGeometry>
                </mxCell>
                <mxCell id="273" value="" style="endArrow=classic;html=1;strokeWidth=3;entryX=0.025;entryY=0.338;entryDx=0;entryDy=0;entryPerimeter=0;" parent="1" source="261" target="268" edge="1">
                    <mxGeometry width="50" height="50" relative="1" as="geometry">
                        <mxPoint x="-173.03999999999996" y="389.03999999999996" as="sourcePoint"/>
                        <mxPoint x="-400" y="530" as="targetPoint"/>
                    </mxGeometry>
                </mxCell>
                <mxCell id="274" value="" style="endArrow=classic;html=1;strokeWidth=3;entryX=1;entryY=0;entryDx=0;entryDy=0;" parent="1" source="268" target="260" edge="1">
                    <mxGeometry width="50" height="50" relative="1" as="geometry">
                        <mxPoint x="-163.03999999999996" y="399.03999999999996" as="sourcePoint"/>
                        <mxPoint x="-620" y="550" as="targetPoint"/>
                    </mxGeometry>
                </mxCell>
                <mxCell id="275" value="&lt;font face=&quot;Times New Roman&quot;&gt;&lt;b&gt;Bad weather&lt;/b&gt;&lt;/font&gt;" style="ellipse;whiteSpace=wrap;html=1;strokeWidth=2;" parent="1" vertex="1">
                    <mxGeometry x="-280" y="210" width="120" height="80" as="geometry"/>
                </mxCell>
                <mxCell id="276" value="" style="endArrow=classic;html=1;strokeWidth=3;entryX=1;entryY=1;entryDx=0;entryDy=0;" parent="1" source="275" target="260" edge="1">
                    <mxGeometry width="50" height="50" relative="1" as="geometry">
                        <mxPoint x="-153.03999999999996" y="409.03999999999996" as="sourcePoint"/>
                        <mxPoint x="-380" y="550" as="targetPoint"/>
                    </mxGeometry>
                </mxCell>
                <mxCell id="277" value="" style="endArrow=classic;html=1;strokeWidth=3;entryX=0.775;entryY=0.913;entryDx=0;entryDy=0;entryPerimeter=0;exitX=0;exitY=0.5;exitDx=0;exitDy=0;" parent="1" source="275" target="262" edge="1">
                    <mxGeometry width="50" height="50" relative="1" as="geometry">
                        <mxPoint x="-260" y="439" as="sourcePoint"/>
                        <mxPoint x="-370" y="560" as="targetPoint"/>
                    </mxGeometry>
                </mxCell>
                <mxCell id="278" value="" style="endArrow=classic;html=1;strokeWidth=3;entryX=0;entryY=0.5;entryDx=0;entryDy=0;exitX=0.5;exitY=1;exitDx=0;exitDy=0;" parent="1" source="225" target="260" edge="1">
                    <mxGeometry width="50" height="50" relative="1" as="geometry">
                        <mxPoint x="-1340" y="290" as="sourcePoint"/>
                        <mxPoint x="-1170" y="360" as="targetPoint"/>
                    </mxGeometry>
                </mxCell>
                <mxCell id="279" value="" style="endArrow=classic;html=1;strokeWidth=3;entryX=0;entryY=0;entryDx=0;entryDy=0;exitX=1;exitY=1;exitDx=0;exitDy=0;" parent="1" source="225" target="262" edge="1">
                    <mxGeometry width="50" height="50" relative="1" as="geometry">
                        <mxPoint x="-1330" y="300" as="sourcePoint"/>
                        <mxPoint x="-1160" y="370" as="targetPoint"/>
                    </mxGeometry>
                </mxCell>
                <mxCell id="280" value="" style="endArrow=classic;html=1;strokeWidth=3;exitX=0.779;exitY=0.926;exitDx=0;exitDy=0;exitPerimeter=0;" parent="1" source="250" target="253" edge="1">
                    <mxGeometry width="50" height="50" relative="1" as="geometry">
                        <mxPoint x="-1110" y="330" as="sourcePoint"/>
                        <mxPoint x="-662.4264068711927" y="628.2842712474619" as="targetPoint"/>
                    </mxGeometry>
                </mxCell>
                <mxCell id="281" value="" style="endArrow=classic;html=1;strokeWidth=3;exitX=0;exitY=0.5;exitDx=0;exitDy=0;entryX=1;entryY=0.419;entryDx=0;entryDy=0;entryPerimeter=0;" parent="1" source="261" target="253" edge="1">
                    <mxGeometry width="50" height="50" relative="1" as="geometry">
                        <mxPoint x="-1100" y="340" as="sourcePoint"/>
                        <mxPoint x="-652.4264068711927" y="638.2842712474619" as="targetPoint"/>
                    </mxGeometry>
                </mxCell>
                <mxCell id="282" value="" style="endArrow=classic;html=1;strokeWidth=3;exitX=1;exitY=1;exitDx=0;exitDy=0;entryX=0.02;entryY=0.625;entryDx=0;entryDy=0;entryPerimeter=0;" parent="1" source="253" target="260" edge="1">
                    <mxGeometry width="50" height="50" relative="1" as="geometry">
                        <mxPoint x="-1090" y="350" as="sourcePoint"/>
                        <mxPoint x="-820" y="520" as="targetPoint"/>
                    </mxGeometry>
                </mxCell>
                <mxCell id="284" value="&lt;font face=&quot;Times New Roman&quot;&gt;&lt;b&gt;Probable&lt;/b&gt;&lt;/font&gt;" style="ellipse;whiteSpace=wrap;html=1;strokeWidth=2;" vertex="1" parent="1">
                    <mxGeometry x="-910" y="700" width="120" height="80" as="geometry"/>
                </mxCell>
                <mxCell id="285" value="&lt;font face=&quot;Times New Roman&quot;&gt;&lt;b&gt;Remote&lt;/b&gt;&lt;/font&gt;" style="ellipse;whiteSpace=wrap;html=1;strokeWidth=2;" vertex="1" parent="1">
                    <mxGeometry x="-750" y="700" width="120" height="80" as="geometry"/>
                </mxCell>
                <mxCell id="286" value="&lt;font face=&quot;Times New Roman&quot;&gt;&lt;b&gt;Extremely remote&lt;/b&gt;&lt;/font&gt;" style="ellipse;whiteSpace=wrap;html=1;strokeWidth=2;" vertex="1" parent="1">
                    <mxGeometry x="-595" y="700" width="120" height="80" as="geometry"/>
                </mxCell>
                <mxCell id="287" value="&lt;font face=&quot;Times New Roman&quot;&gt;&lt;b&gt;Extremely improbable&lt;/b&gt;&lt;/font&gt;" style="ellipse;whiteSpace=wrap;html=1;strokeWidth=2;" vertex="1" parent="1">
                    <mxGeometry x="-430" y="700" width="120" height="80" as="geometry"/>
                </mxCell>
                <mxCell id="288" value="" style="endArrow=classic;html=1;strokeWidth=3;exitX=0.5;exitY=1;exitDx=0;exitDy=0;" edge="1" parent="1" source="260" target="284">
                    <mxGeometry width="50" height="50" relative="1" as="geometry">
                        <mxPoint x="-1060" y="180" as="sourcePoint"/>
                        <mxPoint x="-663.0548414976988" y="627.8590150867462" as="targetPoint"/>
                    </mxGeometry>
                </mxCell>
                <mxCell id="289" value="" style="endArrow=classic;html=1;strokeWidth=3;exitX=0.5;exitY=1;exitDx=0;exitDy=0;entryX=0.5;entryY=0;entryDx=0;entryDy=0;" edge="1" parent="1" source="260" target="285">
                    <mxGeometry width="50" height="50" relative="1" as="geometry">
                        <mxPoint x="-620" y="640" as="sourcePoint"/>
                        <mxPoint x="-791.9075743896763" y="726.0823765681278" as="targetPoint"/>
                    </mxGeometry>
                </mxCell>
                <mxCell id="290" value="" style="endArrow=classic;html=1;strokeWidth=3;exitX=0.5;exitY=1;exitDx=0;exitDy=0;entryX=0.5;entryY=0;entryDx=0;entryDy=0;" edge="1" parent="1" source="260" target="286">
                    <mxGeometry width="50" height="50" relative="1" as="geometry">
                        <mxPoint x="-610" y="650" as="sourcePoint"/>
                        <mxPoint x="-781.9075743896763" y="736.0823765681278" as="targetPoint"/>
                    </mxGeometry>
                </mxCell>
                <mxCell id="291" value="" style="endArrow=classic;html=1;strokeWidth=3;exitX=0.5;exitY=1;exitDx=0;exitDy=0;entryX=0.5;entryY=0;entryDx=0;entryDy=0;" edge="1" parent="1" source="260" target="287">
                    <mxGeometry width="50" height="50" relative="1" as="geometry">
                        <mxPoint x="-600" y="660" as="sourcePoint"/>
                        <mxPoint x="-771.9075743896763" y="746.0823765681278" as="targetPoint"/>
                    </mxGeometry>
                </mxCell>
                <mxCell id="292" value="&lt;font face=&quot;Times New Roman&quot;&gt;&lt;b&gt;Workload&lt;/b&gt;&lt;/font&gt;" style="ellipse;whiteSpace=wrap;html=1;strokeWidth=2;" vertex="1" parent="1">
                    <mxGeometry x="-750" y="-50" width="120" height="80" as="geometry"/>
                </mxCell>
                <mxCell id="298" value="&lt;font face=&quot;Times New Roman&quot;&gt;&lt;b&gt;Operator training hour&lt;/b&gt;&lt;/font&gt;" style="ellipse;whiteSpace=wrap;html=1;strokeWidth=2;" vertex="1" parent="1">
                    <mxGeometry x="-413" y="-60" width="130" height="90" as="geometry"/>
                </mxCell>
                <mxCell id="299" value="&lt;font face=&quot;Times New Roman&quot;&gt;&lt;b&gt;Operator workload in Safe&lt;br&gt;status&lt;br&gt;&lt;/b&gt;&lt;/font&gt;" style="ellipse;whiteSpace=wrap;html=1;strokeWidth=2;" vertex="1" parent="1">
                    <mxGeometry x="-960" y="-240" width="100" height="70" as="geometry"/>
                </mxCell>
                <mxCell id="300" value="&lt;b style=&quot;font-family: &amp;#34;times new roman&amp;#34;&quot;&gt;Operator workload in Warning&lt;br&gt;status&lt;/b&gt;" style="ellipse;whiteSpace=wrap;html=1;strokeWidth=2;" vertex="1" parent="1">
                    <mxGeometry x="-700" y="-240" width="100" height="70" as="geometry"/>
                </mxCell>
                <mxCell id="301" value="&lt;b style=&quot;font-family: &amp;#34;times new roman&amp;#34;&quot;&gt;Operator workload in Suggestion&lt;br&gt;status&lt;/b&gt;" style="ellipse;whiteSpace=wrap;html=1;strokeWidth=2;" vertex="1" parent="1">
                    <mxGeometry x="-830" y="-240" width="100" height="70" as="geometry"/>
                </mxCell>
                <mxCell id="302" value="&lt;b style=&quot;font-family: &amp;#34;times new roman&amp;#34;&quot;&gt;Operator workload in Danger&lt;br&gt;status&lt;/b&gt;" style="ellipse;whiteSpace=wrap;html=1;strokeWidth=2;" vertex="1" parent="1">
                    <mxGeometry x="-570" y="-240" width="100" height="70" as="geometry"/>
                </mxCell>
                <mxCell id="303" value="" style="endArrow=classic;html=1;strokeWidth=3;entryX=0;entryY=0.5;entryDx=0;entryDy=0;exitX=0.5;exitY=1;exitDx=0;exitDy=0;" edge="1" parent="1" source="299" target="292">
                    <mxGeometry width="50" height="50" relative="1" as="geometry">
                        <mxPoint x="-947.5735931288073" y="-129.99572875253807" as="sourcePoint"/>
                        <mxPoint x="-872.4264068711927" y="-6.564271247461875" as="targetPoint"/>
                    </mxGeometry>
                </mxCell>
                <mxCell id="304" value="" style="endArrow=classic;html=1;strokeWidth=3;entryX=0;entryY=0;entryDx=0;entryDy=0;exitX=0.5;exitY=1;exitDx=0;exitDy=0;" edge="1" parent="1" source="301" target="292">
                    <mxGeometry width="50" height="50" relative="1" as="geometry">
                        <mxPoint x="-962.1000000000001" y="-165.02999999999997" as="sourcePoint"/>
                        <mxPoint x="-821" y="-50" as="targetPoint"/>
                    </mxGeometry>
                </mxCell>
                <mxCell id="305" value="" style="endArrow=classic;html=1;strokeWidth=3;exitX=0.5;exitY=1;exitDx=0;exitDy=0;" edge="1" parent="1" source="300" target="292">
                    <mxGeometry width="50" height="50" relative="1" as="geometry">
                        <mxPoint x="-952.1000000000001" y="-155.02999999999997" as="sourcePoint"/>
                        <mxPoint x="-780" y="-100" as="targetPoint"/>
                    </mxGeometry>
                </mxCell>
                <mxCell id="306" value="" style="endArrow=classic;html=1;strokeWidth=3;exitX=0.5;exitY=1;exitDx=0;exitDy=0;" edge="1" parent="1" source="302" target="292">
                    <mxGeometry width="50" height="50" relative="1" as="geometry">
                        <mxPoint x="-942.1000000000001" y="-145.02999999999997" as="sourcePoint"/>
                        <mxPoint x="-801" y="-30" as="targetPoint"/>
                    </mxGeometry>
                </mxCell>
                <mxCell id="307" value="" style="endArrow=classic;html=1;strokeWidth=3;entryX=0.5;entryY=0;entryDx=0;entryDy=0;exitX=0.5;exitY=1;exitDx=0;exitDy=0;" edge="1" parent="1" source="292" target="262">
                    <mxGeometry width="50" height="50" relative="1" as="geometry">
                        <mxPoint x="-980" y="-70" as="sourcePoint"/>
                        <mxPoint x="-791" y="-20" as="targetPoint"/>
                    </mxGeometry>
                </mxCell>
                <mxCell id="308" value="&lt;font face=&quot;Times New Roman&quot;&gt;&lt;b&gt;Insufficient&lt;br&gt;&lt;/b&gt;&lt;/font&gt;" style="ellipse;whiteSpace=wrap;html=1;strokeWidth=2;" vertex="1" parent="1">
                    <mxGeometry x="-450" y="-240" width="100" height="70" as="geometry"/>
                </mxCell>
                <mxCell id="309" value="&lt;font face=&quot;times new roman&quot;&gt;&lt;b&gt;Skilled&lt;/b&gt;&lt;/font&gt;" style="ellipse;whiteSpace=wrap;html=1;strokeWidth=2;" vertex="1" parent="1">
                    <mxGeometry x="-190" y="-240" width="100" height="70" as="geometry"/>
                </mxCell>
                <mxCell id="310" value="&lt;font face=&quot;times new roman&quot;&gt;&lt;b&gt;Adequate&lt;/b&gt;&lt;/font&gt;" style="ellipse;whiteSpace=wrap;html=1;strokeWidth=2;" vertex="1" parent="1">
                    <mxGeometry x="-320" y="-240" width="100" height="70" as="geometry"/>
                </mxCell>
                <mxCell id="312" value="" style="endArrow=classic;html=1;strokeWidth=3;exitX=0.5;exitY=1;exitDx=0;exitDy=0;entryX=0;entryY=0;entryDx=0;entryDy=0;" edge="1" parent="1" source="308" target="298">
                    <mxGeometry width="50" height="50" relative="1" as="geometry">
                        <mxPoint x="-510" y="-160" as="sourcePoint"/>
                        <mxPoint x="-645.3990081440807" y="-32.67871453059024" as="targetPoint"/>
                    </mxGeometry>
                </mxCell>
                <mxCell id="313" value="" style="endArrow=classic;html=1;strokeWidth=3;exitX=0.5;exitY=1;exitDx=0;exitDy=0;entryX=0.5;entryY=0;entryDx=0;entryDy=0;" edge="1" parent="1" source="310" target="298">
                    <mxGeometry width="50" height="50" relative="1" as="geometry">
                        <mxPoint x="-500" y="-150" as="sourcePoint"/>
                        <mxPoint x="-635.3990081440807" y="-22.67871453059024" as="targetPoint"/>
                    </mxGeometry>
                </mxCell>
                <mxCell id="314" value="" style="endArrow=classic;html=1;strokeWidth=3;exitX=0.5;exitY=1;exitDx=0;exitDy=0;entryX=1;entryY=0;entryDx=0;entryDy=0;" edge="1" parent="1" source="309" target="298">
                    <mxGeometry width="50" height="50" relative="1" as="geometry">
                        <mxPoint x="-490" y="-140" as="sourcePoint"/>
                        <mxPoint x="-625.3990081440807" y="-12.678714530590241" as="targetPoint"/>
                    </mxGeometry>
                </mxCell>
                <mxCell id="315" value="" style="endArrow=classic;html=1;strokeWidth=3;exitX=0.5;exitY=1;exitDx=0;exitDy=0;entryX=0.5;entryY=0;entryDx=0;entryDy=0;" edge="1" parent="1" source="298" target="268">
                    <mxGeometry width="50" height="50" relative="1" as="geometry">
                        <mxPoint x="-480" y="-130" as="sourcePoint"/>
                        <mxPoint x="-615.3990081440807" y="-2.6787145305902413" as="targetPoint"/>
                    </mxGeometry>
                </mxCell>
            </root>
        </mxGraphModel>
    </diagram>
</mxfile>